<svg width="39" height="39" viewBox="0 0 39 39" fill="none" xmlns="http://www.w3.org/2000/svg">
<path d="M4.26034 29.7152C3.44286 28.1403 3.41879 28.0922 3.40677 28.0682C3.41879 28.0922 3.37674 28.0021 3.35871 27.966C3.32865 27.9119 3.26855 27.7917 3.2926 27.8337C3.30462 27.8578 3.29262 27.8398 3.23852 27.7256C3.20245 27.6535 3.32261 27.8878 3.32862 27.8938C3.34064 27.9119 3.34064 27.9119 3.32862 27.8938C3.32261 27.8758 3.31062 27.8638 3.28056 27.7977C3.25051 27.7376 3.17238 27.5873 3.14834 27.5392C3.1243 27.4971 3.14834 27.5332 3.14834 27.5392C3.55708 28.3266 4.04396 29.2644 4.65106 30.4305C4.65106 30.4305 4.65106 30.4305 4.65106 30.4245C4.65106 30.4245 4.64503 30.4124 4.63902 30.4004C4.627 30.3764 4.59697 30.3222 4.59096 30.3042C4.59096 30.3042 4.63302 30.3884 4.64504 30.4064C4.66307 30.4425 4.68707 30.4845 4.67505 30.4725C4.66303 30.4485 4.61496 30.3644 4.61496 30.3584C4.61496 30.3523 4.65706 30.4425 4.64504 30.4185C4.63302 30.3944 4.58491 30.2982 4.54283 30.2261C4.51277 30.166 4.45271 30.0578 4.43467 30.0217C4.4467 30.0397 4.47672 30.1059 4.48274 30.1119C4.48274 30.1059 4.45867 30.0698 4.45867 30.0638C4.45266 30.0458 4.26032 29.6851 4.24229 29.649C4.24229 29.649 4.16417 29.4928 3.89368 28.9818C3.65325 28.513 3.43682 28.1042 3.33464 27.8999C3.24448 27.7255 3.15435 27.5512 3.14232 27.5272C3.17839 27.5993 3.20844 27.6474 3.14232 27.5272C3.09424 27.437 3.23244 27.6955 3.24446 27.7196C3.26851 27.7617 3.24449 27.7256 3.26853 27.7676C3.28055 27.7917 3.35872 27.942 3.37074 27.96C3.37074 27.948 3.28658 27.8037 3.28658 27.7917C3.30461 27.8278 3.35873 27.9299 3.38277 27.972C3.40081 28.002 3.38271 27.972 3.39473 27.99C3.40074 28.0021 3.43084 28.0562 3.43685 28.0742C3.44887 28.0982 3.45491 28.1043 3.46092 28.1163C3.46092 28.1223 3.49092 28.1704 3.47889 28.1463C3.46687 28.1223 3.39473 27.984 3.39473 27.984C3.39473 27.984 3.43085 28.0562 3.44888 28.0862L4.38654 29.8955C4.36851 29.8594 4.32644 29.7873 4.32043 29.7752C4.31442 29.7632 4.33849 29.8174 4.3445 29.8234C4.3445 29.8294 4.32646 29.7933 4.33848 29.8113C4.34449 29.8234 4.39859 29.9255 4.41061 29.9496C4.42263 29.9676 4.39256 29.9135 4.39857 29.9255C4.40459 29.9375 4.44069 30.0037 4.44069 30.0157C4.44069 30.0097 4.39855 29.9316 4.37451 29.8895C4.37451 29.8835 4.37451 29.8835 4.37451 29.8895C4.42259 29.9797 4.48276 30.1058 4.51282 30.1539C4.53085 30.184 4.47671 30.0938 4.4707 30.0758C4.4707 30.0638 4.43467 30.0037 4.50079 30.136C4.59095 30.3043 4.44069 30.0157 4.2844 29.7212L4.26034 29.7152Z" fill="#03FC10"/>
<path d="M8.53377 7.31273C8.34743 6.40509 8.42559 5.86413 8.69608 5.53353C8.83433 5.37124 9.03871 5.25707 9.3092 5.19095C9.44745 5.16089 9.60367 5.13679 9.77799 5.13078C9.87416 5.13078 9.94631 5.13078 10.0184 5.13078C10.0966 5.13078 10.1747 5.13078 10.2649 5.13078C11.407 5.16083 12.549 5.06471 13.6911 5.03466C15.4643 4.98056 17.2436 4.84827 19.0168 4.90838C19.9725 4.93844 20.9041 4.92645 21.8539 4.80023C22.473 4.71607 23.1101 4.99255 23.7413 4.99856L28.0751 5.03466H28.6161H28.8865H29.0248H29.2051C29.68 5.05269 30.1608 5.14282 30.6117 5.2991C31.5253 5.61167 32.3307 6.19472 32.9198 6.95209C33.5329 7.7335 33.8996 8.71331 33.9598 9.6991C33.9598 9.7592 33.9598 9.82528 33.9658 9.88539V10.0537V10.3362V10.8953L33.9717 12.0133C33.9837 13.504 33.9958 14.9946 34.0259 16.4853C34.08 19.2142 34.2422 21.9372 34.2843 24.6661C34.3023 25.9043 34.3023 27.1426 34.2843 28.3748V28.8377L34.2783 29.0721L34.2663 29.3847C34.2363 29.8295 34.1581 30.2682 34.0259 30.695C33.7554 31.5485 33.2624 32.3299 32.6253 32.937C31.8138 33.7185 30.7319 34.2534 29.6019 34.3857C29.4636 34.4037 29.3193 34.4158 29.1811 34.4218C29.1089 34.4218 29.0428 34.4218 28.9707 34.4218H28.7964L28.2013 34.4097L27.0172 34.3857C25.274 34.3496 23.5309 34.2835 21.7878 34.2595C21.3129 34.2535 20.838 34.3496 20.3692 34.3736C19.6118 34.4097 18.8545 34.4518 18.1031 34.4398C16.6485 34.4097 15.1938 34.3015 13.7392 34.2895C12.8195 34.2835 11.8998 34.3015 10.9802 34.3196L10.289 34.3316H9.94631L9.77204 34.3376H9.52558C8.87039 34.3076 8.21518 34.1513 7.61409 33.8748C7.14524 33.6584 6.71245 33.3759 6.32776 33.0332C5.94907 32.6966 5.61848 32.306 5.354 31.8732C4.81302 31.0076 4.5486 29.9737 4.58467 28.9819L4.75291 29.6732L4.57263 29.2885L4.58467 28.9819L4.6868 26.6256C4.76494 24.7923 4.8912 22.953 4.93929 21.1197C4.96333 20.17 4.85512 19.2203 4.84911 18.2706C4.84911 17.3209 4.9032 16.3651 4.91522 15.4154C4.93325 13.9548 5.06554 12.5062 5.19177 11.0515L5.28187 9.96354L5.31196 9.65096C5.31797 9.54277 5.34198 9.4286 5.36002 9.32041C5.40209 9.10402 5.4562 8.88758 5.52232 8.6772C5.79882 7.83568 6.30374 7.09636 6.95893 6.51331C7.33761 6.1767 7.81246 6.13464 8.14907 6.60349C8.30535 6.81387 8.40153 7.04226 8.45563 7.25865C8.50371 7.46903 8.50372 7.66736 8.46164 7.83567C8.3835 8.1302 8.40156 8.44884 8.26331 8.58108C8.0349 8.80349 7.84852 9.08599 7.77038 9.40457C7.7283 9.56686 7.71631 9.72311 7.72834 9.89743C7.74036 10.1799 7.75838 10.4685 7.79445 10.751C7.89663 11.5925 7.59608 12.4521 7.56603 13.3056C7.51193 14.8264 7.548 16.3471 7.4939 17.8678C7.45784 18.8356 7.28953 19.8033 7.26549 20.7711C7.25347 21.4022 7.46387 22.0334 7.44584 22.6645C7.39776 24.7743 7.2895 26.8781 7.22939 28.9879L7.09717 28.4469L7.2354 28.7355L7.22337 28.9879C7.21736 29.1502 7.22339 29.3125 7.24744 29.4688C7.3376 30.088 7.68627 30.6589 8.19118 31.0496C8.43763 31.242 8.72014 31.3923 9.01467 31.4825C9.16494 31.5305 9.31522 31.5605 9.4715 31.5786C9.54964 31.5906 9.62772 31.5966 9.70586 31.5966H9.76603H9.85019H10.0184C11.4069 31.6207 12.7955 31.6868 14.178 31.7109L20.0626 31.783C20.826 31.795 21.5833 31.8491 22.3467 31.825C23.1702 31.801 23.9877 31.6507 24.8112 31.6567C25.5385 31.6567 26.2658 31.6808 26.9931 31.7109L28.0871 31.7529L28.6341 31.771H28.9046C28.9707 31.783 29.0368 31.783 29.1029 31.777C29.6139 31.7529 30.0888 31.5486 30.5035 31.2601C31.2008 30.7792 31.6636 29.9737 31.6936 29.1021C31.7297 27.96 31.7538 26.7999 31.7658 25.6519C31.7898 23.4399 31.7357 21.2279 31.7417 19.0159C31.7417 16.864 31.7958 14.7061 31.7778 12.5543C31.7778 11.8931 31.7478 11.2258 31.7117 10.5646L31.6876 10.0657C31.6876 9.97559 31.6756 9.92144 31.6756 9.86133C31.6696 9.80122 31.6636 9.74115 31.6515 9.68105C31.6095 9.44061 31.5434 9.21219 31.4532 8.9958C31.1767 8.32258 30.6357 7.69748 29.9264 7.44502C29.722 7.36688 29.4997 7.33076 29.2833 7.31273C29.2292 7.31273 29.1751 7.31273 29.121 7.31273H28.9406L28.4778 7.33679C27.8647 7.36084 27.2516 7.3789 26.6385 7.37289C25.1899 7.35486 23.7413 7.2707 22.2926 7.21661C22.0702 7.21059 21.8479 7.20458 21.6255 7.21661C19.696 7.31278 17.7665 7.44499 15.837 7.49308C14.6408 7.52314 13.4447 7.41491 12.2485 7.38485C11.6174 7.37283 10.9682 7.30076 10.3551 7.44502C10.2529 7.46906 10.1567 7.48106 10.0606 7.49308C9.96438 7.49909 9.85015 7.5051 9.80807 7.49308C9.68184 7.48707 9.56162 7.46906 9.42938 7.439C9.17092 7.38491 8.87036 7.30678 8.51572 7.30077L8.53377 7.31273Z" fill="#03FC10"/>
<path d="M32.9984 37.0004C32.9623 36.0086 32.9022 35.4918 33.0465 35.1011C33.1787 34.7043 33.5153 34.4459 34.0563 33.8989C34.9459 32.9852 35.4749 31.777 35.6853 30.5568C35.7694 30.0819 35.8054 29.6011 35.7814 29.1082L35.7273 27.4131C35.6973 26.2831 35.6792 25.153 35.7093 24.023C35.7393 22.8088 35.7273 21.6186 35.6011 20.4105C35.523 19.623 35.7934 18.8116 35.7994 18.0061L35.8355 12.4882V11.1057L35.8416 10.4144V10.0718V9.77126C35.8115 8.98985 35.6612 8.21443 35.3727 7.49312C34.7896 6.00243 33.6296 4.72815 32.223 3.9828C31.5137 3.61013 30.7443 3.36965 29.9509 3.26747C29.7525 3.24343 29.5542 3.23143 29.3558 3.21941H29.0553H28.7067L27.2821 3.23746C23.8078 3.28555 20.3335 3.44779 16.8592 3.48385C15.2844 3.50188 13.7095 3.49587 12.1347 3.48385L10.9506 3.47189H10.3615L10.067 3.46587H9.91671H9.79645L9.32758 3.48385C9.1713 3.48385 9.01507 3.52599 8.85879 3.54402L8.62436 3.57403C8.54622 3.59206 8.47409 3.61007 8.39594 3.62811C8.24567 3.67018 8.08938 3.69427 7.93911 3.74837C6.40033 4.21722 5.05388 5.3052 4.2364 6.69972C3.77958 7.46911 3.47305 8.32262 3.36486 9.21824L3.31078 9.89747L3.29273 10.733L3.26264 12.398C3.25663 12.9991 3.35284 13.6062 3.37087 14.2073C3.40694 15.169 3.449 16.1367 3.43097 17.0985C3.40091 18.9498 3.29271 20.8072 3.27468 22.6585C3.26867 23.8306 3.28672 25.0027 3.29874 26.1749L3.31672 27.9361V28.8136V29.024V29.2044C3.31672 29.3246 3.32876 29.4388 3.33477 29.559C3.41291 30.689 3.76756 31.8011 4.39269 32.7628C5.01181 33.7306 5.90742 34.548 6.94129 35.083C7.80084 35.5218 8.76261 35.7923 9.75441 35.8404C10.9205 35.8885 12.0926 35.9365 13.2647 35.9606C14.4729 35.9906 15.6811 35.8764 16.8953 35.8704C18.1095 35.8704 19.3176 35.9245 20.5318 35.9365C22.3892 35.9545 24.2405 36.0868 26.0919 36.2191C27.0176 36.2852 27.9432 36.3452 28.8689 36.3873C29.7104 36.4294 30.558 36.3152 31.3514 36.0207C31.8022 35.8584 32.229 35.8404 32.6017 36.3032C32.9383 36.718 33.0044 37.2168 32.5656 37.6616C32.1929 38.0403 31.7121 38.4551 31.1831 38.5573C30.7504 38.6414 30.3236 38.6955 29.8908 38.7255C29.6744 38.7436 29.458 38.7496 29.2476 38.7496C29.1394 38.7496 29.0313 38.7496 28.9231 38.7496H28.6405C27.9192 38.7376 27.1979 38.7496 26.4646 38.8217C25.3946 38.9179 24.2947 38.6234 23.2067 38.5873C21.2712 38.5272 19.3357 38.5633 17.4002 38.5092C16.168 38.4731 14.9357 38.3048 13.7035 38.2807C12.9041 38.2627 12.0926 38.4731 11.2931 38.4611L10.1751 38.437H9.89264L9.75441 38.425H9.5921C9.37571 38.413 9.15934 38.395 8.94295 38.3709C8.0834 38.2747 7.23584 38.0644 6.4364 37.7338C4.83751 37.0786 3.44899 35.9726 2.44518 34.6081C1.66376 33.5562 1.09274 32.348 0.804221 31.0677C0.659961 30.4306 0.581817 29.7754 0.575806 29.1262C0.575806 28.9519 0.575806 28.8257 0.575806 28.6754V28.2426L0.587839 27.383C0.611883 25.6159 0.677967 23.8487 0.70201 22.0815L0.780154 14.58C0.792176 13.6122 0.846315 12.6384 0.822272 11.6706C0.81025 11.1477 0.768153 10.6248 0.726077 10.1018C0.702034 9.85537 0.70201 9.53684 0.70201 9.24231C0.689989 8.94176 0.738084 8.64724 0.786171 8.35271C0.966497 7.31283 1.33921 6.30298 1.87417 5.40136C2.40313 4.49372 3.11241 3.70024 3.90585 3.02702C4.66322 2.38987 5.50471 1.83688 6.43038 1.46421C6.82109 1.33197 7.20576 1.1757 7.6145 1.09756C7.81887 1.05548 8.01123 0.989385 8.22161 0.971352L8.83473 0.887191C9.03909 0.851126 9.24348 0.863112 9.44785 0.851091C9.6462 0.851091 9.87462 0.833052 10.0489 0.845074L11.1489 0.869141C12.6155 0.905206 14.0883 0.935263 15.5549 0.947285C18.374 0.971328 21.1931 0.923224 24.0122 0.929235L28.1296 0.959318H28.6465C28.8208 0.965329 28.9771 0.95933 29.1755 0.971352C29.5542 0.971352 29.9389 1.01946 30.3115 1.06755C31.0629 1.18175 31.8083 1.38607 32.5115 1.68661C34.2487 2.41392 35.8054 3.62816 36.8273 5.26312C37.224 5.90027 37.5185 6.6035 37.7289 7.3248C37.9333 8.05212 38.0415 8.7975 38.0896 9.54285L38.1497 11.9412C38.1678 12.7226 38.1857 13.504 38.1797 14.2854C38.1617 16.1308 38.0716 17.9761 38.0175 19.8154C38.0115 20.0979 38.0055 20.3804 38.0175 20.6629C38.1077 23.1214 38.2399 25.5738 38.288 28.0323C38.294 28.417 38.294 28.7836 38.288 29.1803C38.2759 29.6191 38.2279 30.0579 38.1557 30.4967C37.9934 31.3683 37.7109 32.2038 37.3322 32.9972C36.9295 33.8388 36.3464 34.578 35.8535 35.3414C35.5229 35.8463 35.0842 36.207 34.5973 36.4594C34.1044 36.7179 33.5635 36.8682 32.9924 36.9764L32.9984 37.0004Z" fill="#03FC10"/>
<path d="M23.8618 28.1524C23.6153 27.2688 23.4711 26.812 23.4771 26.5235C23.4891 26.247 23.6273 26.1147 23.9279 25.9404C24.4027 25.6278 24.7694 25.177 25.118 24.7443C25.659 24.053 26.0196 23.2716 26.3923 22.5142C26.4885 22.3099 26.5847 22.0995 26.6268 21.8771C26.6869 21.6607 26.6989 21.4323 26.6929 21.1979C26.6929 21.0476 26.753 20.9153 26.8371 20.7771C26.9273 20.6388 27.0055 20.4946 27.0295 20.3443L27.0655 20.0858L27.0776 19.8214L27.0896 19.5569C27.0896 19.4667 27.0836 19.3826 27.0836 19.2924L27.0655 18.7695C27.0475 18.5952 27.0174 18.4209 26.9934 18.2526L26.9574 17.9941C26.9393 17.9099 26.9153 17.8258 26.8913 17.7417L26.759 17.2367L26.5727 16.7438C26.5426 16.6657 26.5186 16.5755 26.4765 16.4974L26.3623 16.2629C26.0618 15.6078 25.641 15.0127 25.1601 14.4777C24.6913 13.9307 24.1082 13.498 23.4951 13.1313L23.0684 12.9029C22.9241 12.8308 22.7678 12.7826 22.6176 12.7165C22.323 12.5843 22.0044 12.5242 21.6979 12.434C21.0727 12.3078 20.4476 12.2237 19.8165 12.2297C18.6864 12.2176 17.5383 12.3559 16.4985 12.8067C15.8252 13.0832 15.2122 13.4799 14.6351 13.9307C13.998 14.4236 13.4269 15.0248 12.9942 15.716C12.8619 15.8963 12.8619 16.1487 12.7897 16.3531L12.6996 16.5996C12.6696 16.6837 12.6575 16.7678 12.6334 16.852C12.5914 17.0203 12.5313 17.1826 12.4712 17.3449C12.3871 17.6635 12.2428 17.97 12.1767 18.3006C12.1406 18.4629 12.0865 18.6253 12.0685 18.7936C12.0504 18.9619 12.0324 19.1301 12.0204 19.2984C11.9964 20.164 12.2127 20.9935 12.4532 21.799C12.7477 22.7727 13.1865 23.7285 13.8297 24.57C14.3646 25.2612 14.9958 25.9104 15.7712 26.3732C15.9755 26.4814 16.1919 26.5716 16.4143 26.6377C16.6427 26.6918 16.8651 26.7399 17.0815 26.818C17.3039 26.8721 17.5203 26.9382 17.7427 27.0104C17.9651 27.0765 18.1936 27.1125 18.416 27.1546C18.5903 27.1967 18.7645 27.1967 18.9448 27.2267C19.1192 27.2508 19.2995 27.2929 19.4798 27.3109C19.8405 27.353 20.2012 27.3891 20.5738 27.3951C21.3132 27.4071 22.0766 27.3049 22.7558 26.9743C22.9481 26.8782 23.1826 26.9623 23.4951 27.4552C23.7776 27.9 23.9219 28.3448 23.8017 28.6633C23.6935 28.9338 23.5612 29.2584 23.3388 29.3245C22.6055 29.5349 21.8842 29.6732 21.1569 29.9376C20.6159 30.136 20.0088 29.8896 19.4618 29.8655C19.2154 29.8535 18.9689 29.8235 18.7225 29.8114L18.3558 29.7874C18.2356 29.7754 18.1094 29.7513 17.9891 29.7333C17.7427 29.6912 17.5023 29.6552 17.2558 29.6071C17.0154 29.541 16.7809 29.4748 16.5465 29.3967C16.4744 29.3726 16.3963 29.3486 16.3241 29.3186C16.252 29.2885 16.1799 29.2524 16.1138 29.2164C15.9755 29.1442 15.8373 29.0661 15.699 28.988C15.4225 28.8437 15.17 28.6573 14.8935 28.5131C14.5389 28.3448 14.0941 28.2967 13.7515 28.0743C12.5013 27.2147 11.5395 26.0066 10.8122 24.7263C10.2532 23.7345 9.78431 22.6766 9.56792 21.5525C9.42366 20.687 9.38758 19.8094 9.47774 18.9438C9.5679 17.7236 9.86846 16.5094 10.3914 15.4034C10.4996 15.193 10.6138 14.9826 10.728 14.7783C10.8543 14.5799 10.9865 14.3815 11.1007 14.1712C11.2149 13.9428 11.3351 13.7143 11.4614 13.4859C11.5215 13.3717 11.5816 13.2575 11.6537 13.1433C11.7199 13.0291 11.804 12.9329 11.8941 12.8368C12.0504 12.6685 12.2067 12.5001 12.375 12.3438C12.5493 12.1936 12.7297 12.0493 12.904 11.9051C13.0783 11.7548 13.2766 11.6346 13.4629 11.5084L13.7455 11.322L13.8898 11.2258L14.04 11.1417C14.2324 11.0335 14.4127 10.9193 14.599 10.8051C14.7793 10.6849 14.9838 10.6007 15.1761 10.5106C16.4985 9.92752 17.9471 9.68709 19.3657 9.6931C20.7241 9.6931 22.1066 9.90944 23.3689 10.4624C24.5951 10.9974 25.6771 11.8149 26.6028 12.7707C26.741 12.9209 26.8853 13.0652 27.0355 13.2094C27.1738 13.3597 27.306 13.522 27.4442 13.6783C27.7327 13.9789 27.9552 14.3334 28.1836 14.6821C28.3519 14.9646 28.4721 15.2711 28.6043 15.5717C28.7186 15.8782 28.8087 16.1968 28.929 16.4974C28.9951 16.6777 29.0431 16.8641 29.1032 17.0504C29.1573 17.2367 29.2295 17.417 29.2715 17.6094C29.3136 17.7957 29.3497 17.9881 29.3858 18.1804L29.4339 18.4689C29.4459 18.5651 29.4459 18.6613 29.4519 18.7575C29.518 19.6711 29.3738 20.5908 29.1453 21.4623C29.1153 21.6006 29.0792 21.7329 29.0552 21.8711C28.971 22.4722 28.8087 23.0612 28.6224 23.6443C28.412 24.2213 28.1595 24.7924 27.8229 25.3153C27.4082 25.9705 26.8191 26.4814 26.2481 26.9804C26.0918 27.1066 25.9235 27.2268 25.7733 27.359C25.611 27.4793 25.4667 27.6175 25.3525 27.7918C25.1962 28.0202 24.9678 28.1224 24.7214 28.1705C24.4629 28.2066 24.1804 28.1765 23.8919 28.1464L23.8618 28.1524Z" fill="#03FC10"/>
<path d="M15.531 19.112C15.5731 19.2803 15.4409 18.7393 15.6212 19.4907H15.6092H15.5911H15.5491C15.5491 19.4907 15.495 19.4846 15.4709 19.4786C15.4168 19.4786 15.3687 19.4667 15.3207 19.4607C15.2245 19.4486 15.1283 19.4366 15.0441 19.4306C14.8698 19.4065 14.7255 19.3885 14.5933 19.3645C14.3348 19.3164 14.1606 19.2683 14.0403 19.2142C13.8059 19.1 13.7818 18.9558 13.8359 18.7213C13.878 18.523 13.89 18.3246 13.9201 18.1202L13.9562 17.8137C13.9742 17.7115 13.9982 17.6093 14.0223 17.5131C14.1846 16.9 14.401 16.2448 14.8578 15.764C14.984 15.6377 15.1042 15.5175 15.2064 15.3732C15.3146 15.235 15.4228 15.0967 15.513 14.9284C15.6392 14.7121 15.9998 14.7842 16.1862 14.658C16.637 14.3815 17.1119 14.1531 17.6168 13.9908C18.1217 13.8405 18.6387 13.7263 19.1676 13.7082C20.2496 13.6361 21.3555 13.8946 22.3533 14.3875C23.261 14.8383 24.1385 15.4574 24.7396 16.359C25.2746 17.1705 25.5331 18.1502 25.5812 19.106C25.6172 19.7191 25.5451 20.3382 25.3828 20.9333C25.2025 21.5885 24.8779 22.1896 24.5052 22.7365C24.409 22.8868 24.385 23.0912 24.2888 23.2535C24.1506 23.518 23.9763 23.7584 23.7599 23.9688C23.3271 24.3475 22.8161 24.606 22.3293 24.8704C21.7102 25.201 21.055 25.5316 20.3337 25.6158C19.4741 25.718 18.6086 25.5617 17.8271 25.2612C17.178 25.0087 16.6129 24.612 16.096 24.1972C15.9638 24.083 15.8135 24.0048 15.6632 23.9147C15.519 23.8185 15.3687 23.7284 15.2365 23.6082C15.1163 23.4819 15.008 23.3437 14.8999 23.2054C14.8037 23.0612 14.7135 22.9109 14.6113 22.7726C14.3288 22.3218 14.1846 21.7929 14.1485 21.2759C14.1305 21.1497 14.1305 21.0175 14.1245 20.8912C14.1245 20.765 14.1125 20.6388 14.1125 20.5126C14.1125 20.2601 14.0944 20.0196 14.0824 19.7792C14.0704 19.6409 14.2447 19.5207 14.8217 19.4967C15.3507 19.4787 15.8075 19.5207 16.0419 19.5929C16.2463 19.659 16.4927 19.7131 16.4687 19.7792C16.4446 19.8874 16.4266 19.9956 16.4327 20.1038C16.4567 20.206 16.4988 20.3081 16.595 20.3863C16.6731 20.4404 16.649 20.5306 16.619 20.6267C16.5889 20.7229 16.5589 20.8311 16.5769 20.9152C16.6731 21.2038 16.8715 21.4442 17.0518 21.6907C17.0999 21.7808 17.148 21.871 17.19 21.9792C17.2261 22.0874 17.2862 22.1836 17.3644 22.2497C17.4605 22.3519 17.701 22.2256 17.7971 22.3098C18.1818 22.5863 18.6266 22.8328 19.1315 22.9229C19.2277 22.9349 19.3239 22.9529 19.426 22.9469L19.7206 22.9349L20.0091 22.8868C20.1053 22.8748 20.1955 22.8387 20.2917 22.8267C20.3638 22.8147 20.4419 22.7967 20.5141 22.7787L20.7365 22.7245C20.8807 22.6704 21.037 22.6404 21.1692 22.5563C21.5599 22.3579 21.9025 22.0693 22.197 21.7327C22.2511 21.6666 22.3173 21.6065 22.3774 21.5404C22.4315 21.4743 22.4796 21.4021 22.5156 21.318C22.5577 21.2338 22.5517 21.1257 22.5577 21.0235C22.5577 20.9213 22.5697 20.8311 22.5938 20.747C22.72 20.4585 22.8522 20.1639 22.9304 19.8454C22.9484 19.6891 22.9364 19.5328 22.9424 19.3765C22.9724 18.8596 22.9184 18.3125 22.69 17.8256C22.4676 17.3568 22.0889 16.9842 21.6922 16.6716C21.3075 16.3651 20.8807 16.0946 20.3998 15.9803C20.0993 15.9082 19.7867 15.9804 19.4922 15.9924C19.2637 16.0164 19.0293 15.9623 18.8009 16.0164C18.6626 16.0345 18.5424 16.1126 18.4222 16.1607C18.302 16.2208 18.1878 16.2929 18.0616 16.3289C17.7731 16.4492 17.4605 16.5333 17.172 16.7016C17.1239 16.7257 17.0879 16.7617 17.0578 16.7978C16.7933 17.1585 16.649 17.5732 16.5108 17.9459C16.4327 18.1803 16.2343 18.3606 16.1502 18.6071C16.1261 18.6672 16.09 18.7334 16.072 18.7935C16.06 18.8596 16.072 18.9317 16.1321 19.0038C16.2102 19.1 16.1682 19.1661 16.066 19.2383C16.0179 19.2743 15.9457 19.3103 15.8736 19.3464C15.8375 19.3644 15.7955 19.3885 15.7534 19.4065L15.6873 19.4366L15.6572 19.4546H15.6392L15.6332 19.4667C15.6513 19.5508 15.4589 18.7514 15.5431 19.088L15.531 19.112Z" fill="#03FC10"/>
<path d="M31.7361 10.2101C30.8405 10.15 30.3717 10.1439 30.1253 10.1259C29.8788 10.1079 29.8668 10.0838 29.8668 10.0237C29.8668 9.97561 29.8487 9.92754 29.8067 9.89148C29.7706 9.8494 29.7285 9.81932 29.6924 9.78927C29.5842 9.68107 29.41 9.65106 29.3799 9.53084C29.3679 9.50079 29.3438 9.47674 29.3137 9.45871C29.2777 9.44669 29.2296 9.45874 29.1635 9.48278C29.0853 9.52485 29.2176 9.29043 29.1815 9.25436C29.0192 9.12212 28.8149 9.04995 28.5985 9.06197C28.3821 9.06197 28.1717 9.14614 28.0394 9.30242C27.9793 9.37455 27.9493 9.4767 27.9313 9.56687C27.9193 9.66304 27.9192 9.74722 27.9132 9.81935C27.8952 9.93957 27.823 10.0237 27.811 10.144C27.793 10.2221 27.799 10.3003 27.787 10.3784C27.775 10.4686 27.757 10.5767 27.793 10.6669C27.799 10.697 27.9012 10.6609 27.9313 10.6669C27.9794 10.6789 28.0454 10.6669 28.0515 10.7029C28.0815 10.763 28.0755 10.8893 28.1416 10.9313C28.2258 10.9854 28.346 10.9193 28.4241 10.9554C28.5203 11.0035 28.6465 11.1057 28.7968 11.1537C28.923 11.1958 29.0914 11.25 29.2357 11.2079C29.2717 11.1959 29.2897 11.1538 29.2958 11.1117C29.3018 11.0636 29.3077 11.0215 29.3318 10.9975C29.3498 10.9674 29.3799 10.9494 29.4159 10.9374C29.446 10.9193 29.4821 10.9013 29.5061 10.8773C29.5662 10.7931 29.7405 10.7631 29.8908 10.6789C30.0471 10.6008 30.1914 10.4625 30.1793 10.3122C30.1793 10.2701 30.3597 10.2401 30.9367 10.2281C31.4657 10.2161 31.9225 10.2401 32.1509 10.3363C32.3433 10.4144 32.5836 10.5286 32.5536 10.6188C32.4995 10.757 32.4394 10.8893 32.4093 11.0275C32.3673 11.1658 32.3553 11.304 32.3793 11.4603C32.3913 11.5745 32.3072 11.6647 32.211 11.7428C32.1088 11.8149 31.9886 11.8751 31.9345 11.9593C31.7241 12.2538 31.5498 12.5783 31.2613 12.8067C31.081 12.951 30.8044 12.9751 30.6181 13.0833C30.5039 13.1554 30.4919 13.4078 30.3597 13.4739C29.8548 13.7084 29.2897 13.7444 28.7788 13.7264C28.3821 13.7204 27.9793 13.7144 27.6006 13.5822C27.4564 13.5401 27.3182 13.462 27.1859 13.3898C27.0597 13.3057 26.9275 13.2275 26.8072 13.1374C26.4586 12.9029 26.146 12.6204 25.9056 12.2778C25.8575 12.2117 25.8274 12.1395 25.7854 12.0674C25.7493 11.9953 25.7193 11.9232 25.6652 11.8631C25.6051 11.7969 25.5329 11.7428 25.4548 11.6767C25.3767 11.6166 25.3045 11.5505 25.2744 11.4603C25.1542 11.1598 25.1723 10.8232 25.1723 10.5166C25.1843 10.3724 25.1362 10.2221 25.1603 10.0778C25.2204 9.58496 25.4247 9.13414 25.6531 8.7254C25.8695 8.3347 26.116 7.93795 26.4706 7.6374C26.8192 7.34888 27.24 7.18058 27.6607 7.04233C27.9192 6.95217 28.1837 6.80193 28.4723 6.77187C28.7007 6.74783 28.9171 6.82597 29.1395 6.85002C29.3979 6.88007 29.6864 6.87404 29.9389 6.98224C30.2274 7.12049 30.4618 7.36093 30.6722 7.58934C30.7083 7.62541 30.7383 7.65548 30.7804 7.67952C31.1531 7.87187 31.5438 8.12431 31.8022 8.49699C31.9585 8.73141 31.9706 9.03193 32.0127 9.29641C32.0247 9.36854 32.0246 9.44066 32.0367 9.51279C32.0487 9.58492 32.0788 9.65108 32.1569 9.70518C32.3793 9.86747 32.0547 10.0718 31.7301 10.2221L31.7361 10.2101Z" fill="#03FC10"/>
</svg>
