<svg width="39" height="34" viewBox="0 0 39 34" fill="none" xmlns="http://www.w3.org/2000/svg">
<path d="M36.6576 15.7782C35.1094 15.3719 35.0215 15.3005 35.1094 14.8723C35.1807 14.5154 35.1424 14.1421 35.1588 13.7798C35.1808 13.2143 35.1368 12.6379 35.2521 12.0834C35.318 11.7869 35.34 11.4904 35.2686 11.1775C35.2192 10.9743 35.4883 10.8042 35.5158 10.6066C35.6585 9.7007 35.7792 8.78929 35.889 7.87794C35.9988 6.93914 36.1142 5.99489 36.18 5.04511C36.2075 4.61139 36.2184 4.17767 36.2239 3.73847V3.40901L36.2349 3.24435V3.16748L36.2294 3.16198C36.2074 3.14551 36.191 3.14549 36.18 3.14C36.1581 3.14 36.1581 3.14 36.1581 3.13451C36.1581 3.12353 36.158 3.1071 36.1526 3.1071H36.1416L36.1251 3.1016H36.1196L36.0866 3.11259L36.0208 3.13451L35.7573 3.22237C35.2302 3.39805 34.6976 3.5518 34.1706 3.73297C34.0278 3.78238 33.9181 3.91962 33.7863 3.99099C33.5722 4.11177 33.3636 4.23802 33.1385 4.30939C32.6993 4.45213 32.2327 4.54002 31.8045 4.69923C31.2555 4.90236 30.7393 5.19883 30.1903 5.38549C29.5205 5.61607 28.8288 5.78074 28.148 5.9674C27.5825 6.12113 27.0006 6.23096 26.4406 6.40664C26.1497 6.49448 25.9081 6.7031 25.6281 6.81839C25.3481 6.93368 25.0461 6.99957 24.7661 7.09839C23.8932 7.41682 22.8776 7.33446 22.0266 7.70778C21.9058 7.76268 21.7465 7.64741 21.5324 7.17526C21.3403 6.74704 21.2305 6.34623 21.2744 6.11015C21.3128 5.90702 21.3458 5.65997 21.4556 5.63801C21.818 5.57213 22.1694 5.49529 22.4658 5.24824C22.68 5.06707 23.0313 5.21526 23.2948 5.1384C23.7615 5.00664 24.2007 4.79802 24.6674 4.66076C24.9638 4.57292 25.3042 4.60036 25.5952 4.50703C25.7873 4.44663 25.9026 4.19413 26.0947 4.13374C26.8029 3.90316 27.5332 3.73295 28.2414 3.50237C28.7849 3.32668 29.3119 3.09062 29.85 2.89847C30.2672 2.75024 30.6955 2.64594 31.1127 2.5032C31.7056 2.30007 32.2876 2.08045 32.875 1.87183C33.1056 1.78948 33.3471 1.74553 33.5613 1.63573C33.7973 1.52044 33.9895 1.29539 34.231 1.20206C34.4451 1.11971 34.6702 1.05382 34.8953 0.987936L35.2303 0.894581L35.2741 0.88359L35.34 0.861675L35.4718 0.817712L35.7353 0.729852C35.9439 0.658481 36.1525 0.570666 36.3611 0.482825C36.4819 0.438904 36.6028 0.395016 36.7181 0.378546C36.9816 0.334625 37.2012 0.334598 37.4098 0.351069C37.6239 0.373029 37.86 0.46636 38.0521 0.625572C38.2497 0.779294 38.398 0.99344 38.4748 1.20755C38.5133 1.31735 38.5297 1.41615 38.5407 1.52595C38.5571 1.63026 38.5627 1.75105 38.5736 1.87183C38.5846 2.1079 38.5518 2.37693 38.5188 2.64045L38.4254 3.44198C38.3925 3.79335 38.3595 4.14473 38.3156 4.49061C38.2278 5.17138 38.1015 5.84114 38.0301 6.52191C37.9862 6.93915 38.0301 7.37291 37.9971 7.79564C37.9697 8.12505 37.871 8.44892 37.838 8.77832C37.7996 9.16812 37.827 9.5634 37.7666 9.94771C37.6952 10.4034 37.5579 10.8481 37.4536 11.2982C37.4372 11.3696 37.4263 11.4355 37.4263 11.5069C37.4318 12.1272 37.4756 12.7531 37.4426 13.3625C37.4207 13.7413 37.278 14.1092 37.2066 14.4825C37.1682 14.6802 37.0803 14.8778 37.1846 15.0864C37.3164 15.3609 37.0035 15.5421 36.6741 15.7508L36.6576 15.7782Z" fill="#03FC10"/>
<path d="M21.258 6.51643C21.3019 8.20737 21.1757 8.35011 19.9844 8.78383C18.9961 9.14068 18.0408 9.60185 17.0691 10.0136C15.5593 10.6559 14.0715 11.3587 12.5288 11.9077C11.6998 12.2042 10.9038 12.528 10.1242 12.9508C9.61911 13.2253 8.98223 13.2144 8.43871 13.4175L4.69994 14.8449L3.65688 15.2512L3.53611 15.3005C3.49219 15.317 3.45366 15.339 3.4317 15.3719C3.38229 15.4433 3.40429 15.5586 3.48116 15.608C3.55802 15.6519 3.64033 15.6904 3.71719 15.7343L3.92588 15.8441L4.72192 16.2778L6.31948 17.1452C7.38456 17.7217 8.45517 18.2926 9.52573 18.8526L10.6896 19.4566C10.7554 19.4895 10.75 19.484 10.761 19.4895H10.7885C10.7885 19.4895 10.8213 19.506 10.8378 19.506C10.8762 19.506 10.9038 19.484 10.9312 19.4621L10.9477 19.4456C10.9477 19.4456 10.9476 19.4456 10.9641 19.4346L11.0355 19.4016L11.31 19.2589L11.859 18.9789L12.957 18.4189C13.6927 18.0456 14.4284 17.6778 15.1641 17.3154C16.1907 16.8158 17.2283 16.3382 18.2659 15.8605L21.3074 14.4715L22.076 14.1202L22.4274 13.9939L22.7184 13.9445C22.8227 13.9226 22.8886 13.9335 22.9654 13.9335H23.196L23.5474 14.0049C23.6627 14.0433 23.7669 14.0817 23.8767 14.1257C23.9756 14.1696 24.0305 14.1971 24.1842 14.2959C24.3269 14.3947 24.5082 14.5539 24.6509 14.7405C24.7937 14.9272 24.9034 15.1469 24.9638 15.328C25.0241 15.5202 25.0297 15.608 25.0407 15.7013C25.0407 15.8111 25.0407 15.9319 25.0407 16.0472C25.0407 16.1021 25.0187 16.1954 25.0132 16.2668L24.9967 16.3821C24.9912 16.4205 24.9912 16.4535 24.9692 16.5084L24.876 16.7938C24.865 16.8378 24.8211 16.9037 24.7992 16.9531L24.7112 17.1233C24.6893 17.1727 24.6344 17.2386 24.5905 17.2989L24.4477 17.4801L21.5599 20.6095L20.0008 22.2784C19.8526 22.4376 19.7208 22.6133 19.5946 22.7945L19.4957 22.9263L19.4463 22.9921L19.4244 23.0251L19.4134 23.0415L19.4244 23.069C19.4298 23.1129 19.5011 23.1019 19.4847 23.1019C19.4847 23.1019 19.4847 23.1019 19.4792 23.1129C19.4792 23.1129 19.4792 23.1129 19.4792 23.1184L19.5067 23.1349L19.6164 23.2008L20.4784 23.7278C21.0494 24.0792 21.6258 24.425 22.2132 24.7544C23.6955 25.5889 25.2219 26.3411 26.6932 27.1921C28.472 28.2187 30.2123 29.2948 31.9636 30.3653L32.348 30.6014L32.4138 30.6618C32.4632 30.7002 32.5127 30.7496 32.5786 30.799C32.6444 30.8429 32.7377 30.8374 32.7871 30.788C32.8365 30.7386 32.8421 30.6673 32.8695 30.5904L32.897 30.4916C32.908 30.4477 32.9079 30.4587 32.9354 30.2995L33.0561 29.5528C33.1934 28.6853 33.21 27.807 33.3198 26.9341C33.4296 26.0611 33.5997 25.1992 33.7205 24.3263C34.0993 21.6636 34.9009 19.0667 35.2193 16.3931C35.2632 16.0088 35.4718 15.7178 35.9934 15.7013C36.471 15.6903 36.8609 15.8715 37.0146 16.2558C37.1463 16.5852 37.3165 16.9585 37.2561 17.277C37.0475 18.3091 36.8498 19.3303 36.8334 20.3954C36.8224 21.1749 36.4546 21.9326 36.3228 22.7067C36.0868 24.0902 35.9384 25.4902 35.7079 26.8737C35.5596 27.7576 35.2961 28.6195 35.1589 29.5034C35.1149 29.7889 35.1204 30.0853 35.1259 30.3818V30.6014V30.7112L35.1149 30.9034C35.0984 31.1669 35.071 31.4304 35.0326 31.6884L35.0106 31.8421C34.9667 32.0727 34.9064 32.2923 34.8185 32.468C34.7307 32.6492 34.6428 32.7919 34.5166 32.9347C34.264 33.2201 33.8632 33.4452 33.4679 33.4892C33.2702 33.5166 33.0945 33.5056 32.9134 33.4672C32.8255 33.4562 32.7213 33.4233 32.628 33.3958C32.5292 33.3574 32.4249 33.3245 32.326 33.275C32.1229 33.1762 31.9197 33.0445 31.7166 32.9292L31.1566 32.5998C30.2452 32.0508 29.3284 31.4963 28.4115 30.9583C26.9731 30.1183 25.5073 29.3332 24.0634 28.5042C22.9544 27.8674 21.8619 27.192 20.7529 26.5552L18.3922 25.2047L17.9476 24.9521C17.7938 24.8643 17.6291 24.7764 17.4808 24.6831C17.404 24.6391 17.3435 24.5843 17.2722 24.5349C17.2118 24.48 17.146 24.4306 17.0966 24.3757C16.9868 24.2713 16.8879 24.1615 16.8166 24.0188C16.6628 23.7443 16.6024 23.3929 16.6683 23.0855C16.6958 22.9263 16.7562 22.7945 16.8276 22.6628C16.8605 22.5969 16.9044 22.5255 16.9483 22.4541C16.9977 22.3828 17.0417 22.3169 17.1021 22.2455C17.2777 22.0369 17.4754 21.8338 17.6621 21.6306L18.0683 21.2079C18.3099 20.9553 18.5513 20.6973 18.7764 20.4283C19.0235 20.1373 19.2431 19.8299 19.4737 19.5224C19.589 19.3687 19.6988 19.215 19.8196 19.0667L19.9898 18.8581C19.9898 18.8581 20.0282 18.8087 20.0502 18.7867C20.1819 18.644 20.3247 18.5068 20.4949 18.3421C20.7035 18.1389 20.9725 17.9083 21.2031 17.6503C21.2855 17.5295 21.2305 17.3758 21.1097 17.3209C21.0493 17.2935 20.978 17.2825 20.9176 17.2989C20.8572 17.3154 20.8023 17.3483 20.7474 17.3648L19.6054 17.815L19.4408 17.8809L19.3584 17.9138L19.2047 17.9797L18.4746 18.2981L17.0141 18.9515C16.1247 19.3577 15.2409 19.775 14.357 20.1922L11.5955 21.4989C11.4747 21.5538 11.3484 21.6032 11.2276 21.6306C11.0464 21.6745 10.8544 21.6855 10.6677 21.6581C10.481 21.6306 10.3107 21.5592 10.1351 21.4659L9.361 21.0377L8.05993 20.3075C7.19249 19.8189 6.32506 19.3357 5.45214 18.8636C4.91411 18.5726 4.37048 18.3036 3.82147 18.0346L2.99796 17.6283L1.6694 16.9256L1.65292 16.9147C1.31253 16.7225 1.07105 16.4809 0.911838 16.2723C0.823997 16.1625 0.758041 16.0747 0.69765 15.9429C0.63726 15.8166 0.59885 15.6629 0.58238 15.5037C0.54944 15.1853 0.642723 14.8339 0.807425 14.6033C0.889776 14.4825 0.972122 14.4112 1.07643 14.3124L1.23017 14.1751L1.41688 14.0379C1.49374 13.983 1.58705 13.9335 1.6694 13.8786C1.76823 13.8347 1.86707 13.7853 1.97139 13.7414L2.60819 13.4834L3.25062 13.2198L3.65688 13.0441C4.17843 12.819 4.69991 12.5994 5.22696 12.3963C6.4787 11.9241 7.75248 11.5124 9.01519 11.0732C9.20735 11.0073 9.39939 10.9359 9.58605 10.8481C11.2166 10.1234 12.8308 9.36581 14.4723 8.67955C15.488 8.25132 16.553 7.94386 17.5906 7.56505C18.1396 7.36192 18.716 7.2082 19.1992 6.88428C19.8305 6.45606 20.5278 6.49995 21.3184 6.51093L21.258 6.51643Z" fill="#03FC10"/>
</svg>
