<svg width="19" height="20" viewBox="0 0 19 20" fill="none" xmlns="http://www.w3.org/2000/svg">
<path fill-rule="evenodd" clip-rule="evenodd" d="M15.4185 4.08087C15.6102 4.00018 15.82 3.97236 16.0261 4.00028C16.2322 4.02821 16.4271 4.11087 16.5904 4.23966C16.7538 4.36845 16.8796 4.53866 16.9548 4.73258C17.03 4.92649 17.0519 5.13703 17.0181 5.34226L15.2587 16.0144C15.088 17.0439 13.9585 17.6342 13.0144 17.1215C12.2247 16.6925 11.0517 16.0315 9.99668 15.3419C9.46916 14.9966 7.85325 13.8912 8.05184 13.1046C8.22251 12.432 10.9377 9.90453 12.4892 8.40187C13.0982 7.81152 12.8205 7.47096 12.1013 8.01399C10.3147 9.36227 7.4483 11.4126 6.50032 11.9898C5.66404 12.4987 5.22806 12.5856 4.70675 12.4987C3.75567 12.3404 2.87362 12.0953 2.15371 11.7966C1.18091 11.3932 1.22823 10.0558 2.15294 9.66637L15.4185 4.08087V4.08087Z" fill="#0C0F11"/>
</svg>
