<svg width="49" height="49" viewBox="0 0 49 49" fill="none" xmlns="http://www.w3.org/2000/svg">
<g clip-path="url(#clip0_292_25731)">
<path fill-rule="evenodd" clip-rule="evenodd" d="M40.1594 9.36677C40.6536 9.15875 41.1946 9.087 41.726 9.159C42.2573 9.231 42.7597 9.4441 43.1808 9.77614C43.6018 10.1082 43.9262 10.547 44.1201 11.0469C44.314 11.5469 44.3704 12.0896 44.2834 12.6188L39.7474 40.1328C39.3074 42.7868 36.3954 44.3088 33.9614 42.9868C31.9254 41.8808 28.9014 40.1768 26.1814 38.3988C24.8214 37.5088 20.6554 34.6588 21.1674 32.6308C21.6074 30.8968 28.6074 24.3808 32.6074 20.5068C34.1774 18.9848 33.4614 18.1068 31.6074 19.5068C27.0014 22.9828 19.6114 28.2688 17.1674 29.7568C15.0114 31.0688 13.8874 31.2928 12.5434 31.0688C10.0914 30.6608 7.81739 30.0288 5.96139 29.2588C3.45339 28.2188 3.57539 24.7708 5.95939 23.7668L40.1594 9.36677Z" fill="white"/>
</g>
<defs>
<clipPath id="clip0_292_25731">
<rect width="48" height="48" fill="white" transform="translate(0.605347 0.506836)"/>
</clipPath>
</defs>
</svg>
