<svg width="375" height="292" viewBox="0 0 375 292" fill="none" xmlns="http://www.w3.org/2000/svg">
<path fill-rule="evenodd" clip-rule="evenodd" d="M355.353 203.336C354.175 203.144 353.051 202.817 352.676 201.751C351.043 197.079 352.944 198.226 355.085 198.8C355.032 199.838 356.906 201.259 355.353 203.336ZM321.916 199.1C320.711 200.467 320.336 200.986 318.596 199.1C317.579 197.98 315.946 198.691 312.091 197.953C310.806 197.707 308.048 196.095 309.413 194.811C310.377 193.909 310.805 195.603 314.5 195.603C316.481 195.603 316.829 194.811 315.49 193.172C315.249 192.871 315.062 192.816 315.116 192.734C315.276 192.516 317.017 192.625 318.275 193.499C320.176 194.811 320.925 196.614 322.183 198.172C322.344 198.39 322.103 198.855 321.862 199.1H321.916ZM316.079 210.412C313.697 211.286 313.242 206.314 316.16 207.407C317.498 207.898 317.016 210.057 316.079 210.412ZM300.525 177.57C300.499 177.761 300.472 177.898 300.445 177.898C300.445 177.789 300.499 177.679 300.525 177.57C300.579 177.297 300.632 176.914 300.659 176.914C300.632 177.133 300.579 177.351 300.525 177.57ZM281.491 246.096C281.571 246.287 281.651 246.451 281.651 246.451C281.598 246.342 281.544 246.205 281.491 246.096ZM273.192 62.0489C271.023 61.7756 271.88 57.2126 273.352 58.688C275.173 60.4914 274.316 62.2128 273.192 62.0489ZM238.898 263.091C238.576 263.446 238.657 263.719 237.238 263.774C236.622 263.801 236.676 261.725 236.274 260.768C235.926 259.949 236.033 258.774 234.721 258.446C234.025 258.282 233.169 258.828 232.365 259.047C229.046 259.976 229.421 255.03 233.891 255.823C235.739 256.151 234.989 257.736 238.068 258.637C239.139 258.938 238.924 260.085 238.924 263.063L238.898 263.091ZM197.429 250.003C195.582 245.686 200.401 245.358 200.936 246.943C201.926 249.894 197.991 251.315 197.429 250.003ZM190.816 245.877C189.719 249.375 188.808 255.085 184.953 252.654C184.953 252.654 184.498 251.123 184.418 250.55C183.829 246.561 178.555 248.036 179.813 244.976C180.643 242.926 183.106 242.598 183.615 243.118C185.944 245.495 187.657 243.774 189.531 243.364C190.281 243.2 191.379 244.047 190.816 245.877ZM169.935 239.374C169.935 239.374 170.149 239.183 170.283 239.101C170.47 239.347 170.658 239.593 170.872 239.839C170.122 240.194 169.908 240.44 169.961 239.374H169.935ZM161.207 243.855C158.985 242.544 159.708 240.741 161.662 240.194C165.116 239.238 163.242 245.085 161.207 243.855ZM148.759 249.457C146.001 257.79 145.118 256.643 140.727 257.954C139.603 258.282 137.113 254.785 140.861 249.539C142.307 247.517 142.655 246.806 147.366 248.036C148.598 248.336 149 248.746 148.759 249.457ZM133.231 254.047C133.847 252.462 135.373 253.063 135.614 254.238C135.855 255.468 133.017 254.593 133.231 254.047ZM132.776 235.905C132.08 237.38 129.028 235.768 127.475 234.538C126.164 233.5 127.449 231.724 127.77 231.041C127.93 229.429 127.77 226.997 130.126 227.817C132.053 228.473 136.149 228.801 132.776 235.905ZM126.726 272.544C125.923 272.217 125.093 271.889 124.29 271.561C124.798 270.878 124.718 269.922 125.762 269.539C126.699 269.184 128.305 270.523 126.726 272.572V272.544ZM85.846 243.473C84.9358 243.282 84.0523 243.118 83.1421 242.926C84.5074 240.604 84.6146 239.866 85.8728 240.385C87.6933 241.068 86.0066 242.954 85.846 243.473ZM78.1359 244.375C76.9044 245.659 79.0192 247.927 76.5563 249.566C76.2886 249.757 75.2713 249.211 74.6288 249.184C73.8792 249.184 71.8713 249.894 71.8713 249.894C70.3186 249.293 72.5942 248.145 70.6131 246.069L70.8808 242.763C71.8981 240.932 73.8792 241.451 74.4414 237.216C74.8162 237.161 74.8697 237.38 74.8697 236.506C77.2523 235.768 75.4587 234.074 77.3059 235.85C78.2429 236.724 79.2067 237.544 78.1091 238.637C77.4933 239.238 77.413 240.194 76.9043 240.905C76.3153 241.724 76.9044 242.38 78.1359 244.402V244.375ZM69.221 234.921C65.0179 236.779 64.884 234.729 63.1974 236.287C61.136 238.172 57.7897 238.118 57.0936 236.26C56.7991 235.495 56.2368 233.691 56.7722 233.145C60.7344 229.183 63.7863 223.391 64.4824 220.03C64.7769 218.609 67.9894 220.358 66.6508 221.369C64.1611 223.199 65.6068 226.014 65.2053 228.336C65.1785 228.555 65.6336 228.992 66.0084 229.183C66.9186 229.62 67.3737 230.167 67.5075 230.986C67.7753 232.817 69.6494 233.227 70.1312 232.762C70.5864 232.325 71.4698 230.986 72.2729 231.205C73.4509 231.505 73.5311 233.446 73.3705 234.129C73.1831 234.784 72.6208 235.331 72.1657 235.905C71.2555 237.107 70.0509 234.593 69.2477 234.948L69.221 234.921ZM43.4937 146.04C32.223 141.914 33.8828 141.149 31.7679 142.979C30.1348 144.373 30.6434 143.198 26.8151 143.335C23.6293 143.444 21.6483 142.378 19.3995 139.728C19.8814 138.334 19.8012 138.143 18.4358 137.952C15.7855 137.542 15.1696 136.777 16.7758 134.728C20.6577 137.733 20.0419 133.116 26.1458 135.056C30.456 136.422 35.4624 135.056 41.8339 136.722C43.0119 135.165 43.2795 135.657 41.2717 133.58C39.7457 131.995 42.5566 131.067 43.2259 131.422C44.9125 132.351 52.4354 134.4 49.5173 137.924C48.0984 139.618 49.5173 139.291 50.3472 141.176C51.5251 143.936 46.9472 147.296 43.4937 146.04ZM22.5585 113.88C24.727 114.727 24.0844 116.941 21.9963 116.585C19.2121 116.094 20.0688 112.897 22.5585 113.88ZM21.3002 109.59C23.4419 109.59 24.3789 110.547 23.8435 110.82C22.1301 111.667 19.5065 109.618 21.3002 109.59ZM33.7757 108.197C33.5616 110.902 30.1348 112.405 28.9301 111.531C26.8152 110.001 32.5175 105.82 33.7757 108.197ZM28.2608 89.9181C28.9301 89.7815 29.9474 89.9181 30.7506 90.6012C35.7568 94.9729 35.5693 94.7815 36.8811 97.623C37.8181 99.6996 34.7395 101.175 33.7757 100.11C27.7522 93.3608 22.5853 91.0657 28.2608 89.9181ZM374.816 189.073C373.236 184.565 373.129 184.182 374.2 182.297C374.361 182.024 373.932 181.505 373.504 181.75C372.353 182.406 371.576 183.718 369.702 183.226C367.159 182.57 366.891 185.685 364.536 184.537C361.992 183.308 359.663 182.051 362.019 180.794C364 179.729 360.306 177.133 357.762 177.215C354.229 177.324 353.158 175.767 347.482 176.341C345.26 176.559 343.6 175.138 341.86 174.127C341.485 172.843 342.985 172.461 343.493 171.586C344.189 170.357 345.983 171.395 345.822 167.706C345.608 162.952 344.966 167.105 344.778 163.034C346.518 162.379 348.232 161.559 348.58 160.001C348.928 158.335 352.274 159.264 351.417 157.46C350.855 156.313 348.259 156.204 348.5 157.351C349.062 160.275 345.1 159.783 341.084 163.28C339.317 163.608 341.164 164.072 338.915 166.996C333.856 168.089 335.596 167.133 329.438 166.586C327.431 166.395 323.843 168.526 324.245 170.903C324.352 171.504 323.656 172.297 322.076 172.433C316.24 172.925 319.694 169.865 312.733 167.078C311.769 166.696 311.234 165.111 311.823 164.646C313.161 163.581 314.554 162.57 315.919 161.559C318.409 161.695 319.292 159.592 321.728 159.564C322.853 159.564 323.87 159.182 324.914 158.936C328.662 158.116 324.245 155.848 326.601 154.865C349.356 145.274 352.917 149.318 356.343 148.143C362.019 146.231 361.109 150.684 363.92 150.438C369.006 150.029 367.48 150.439 365.901 147.132C364.91 145.056 370.05 146.012 372.701 142.46C375.03 139.345 362.608 136.094 359.047 142.05C358.03 143.744 355.299 143.253 354.443 143.307C345.581 143.936 349.918 145.657 343.895 145.411C332.972 145.001 333.668 151.777 327.002 148.799C326.413 148.526 326.092 147.515 326.52 147.433C329.733 146.723 332.303 145.302 334.578 143.58C335.89 144.072 337.845 142.897 336.319 142.269C336.613 141.559 336.908 140.875 336.506 140.056C336.881 139.482 336.827 138.935 336.158 138.389C336.747 137.924 336.854 137.378 336.211 136.75C336.292 136.285 336.399 135.821 336.426 135.356C336.479 134.536 334.311 135.875 333.856 136.449C333.454 136.968 333.936 137.733 334.525 138.334C334.23 139.591 333.642 140.712 332.169 141.313C329.679 141.477 330.081 142.05 326.681 138.198C324.727 135.985 328.555 134.837 328.715 129.236C328.715 128.362 332.115 128.006 333.561 128.443C336.8 129.454 338.808 127.87 338.755 126.094C338.701 124.509 331.66 127.87 331.259 123.553C331.152 122.46 330.402 121.968 329.305 121.394C324.459 118.853 324.7 122.787 321.086 119.837C316.615 116.175 326.44 111.995 313.563 114.044C312.251 113.142 312.679 111.968 312.144 110.957C311.796 110.301 310.056 109.017 311.662 109.181C318.757 109.864 312.037 108.962 313.964 106.066C315.544 103.689 317.364 105.055 318.971 103.252C321.3 100.683 322.906 101.394 326.065 98.3608C326.574 97.869 327.029 96.4755 326.253 95.929C323.12 93.6612 321.032 96.7487 320.497 97.3225C319.345 98.4974 316.454 94.5084 317.927 92.2952C319.346 90.1913 317.793 83.7157 313.804 86.0928C312.626 86.7759 311.689 87.8143 310.377 88.2788C308.289 89.0165 307.004 90.1642 306.12 91.7762C305.424 93.0058 302.453 91.6396 302.051 90.0275C301.623 88.1696 299.883 87.9783 298.491 87.5957C296.858 87.1586 295.385 85.082 297.714 83.7978C299.561 82.7595 302.346 84.3715 303.122 85.3824C304.809 87.6229 304.969 80.929 310.832 80.8197C311.903 80.8197 311.903 80.0547 312.786 76.7213C314.58 76.5573 313.215 75.6009 314.955 75.5462C314.714 74.7539 315.544 74.754 315.838 73.9616C316.294 72.6501 316.615 71.3111 316.99 69.9723C320.631 68.5788 316.802 66.3385 321.889 67.1309C327.805 68.0326 322.29 61.5568 320.309 62.4584C318.462 63.2781 319.346 64.5352 319.265 65.7101C319.078 68.3331 316.401 66.3384 314.58 69.3439C308.128 69.2619 312.867 76.4478 302.239 78.1691C299.321 78.6336 301.489 80.8468 297.741 80.2457C295.76 79.9178 296.215 78.224 296.349 77.0218C296.536 75.4644 295.117 70.6829 291.423 71.2567C289.924 71.4753 288.692 72.2676 286.899 71.9124C285.908 71.7211 285.266 72.295 284.971 72.978C283.552 76.1748 280.634 75.6009 280.099 73.9069C279.724 72.6774 280.072 71.3933 278.84 70.2184C277.743 69.1801 277.85 68.1146 278.492 67.1856C281.25 63.2238 283.258 58.8519 287.943 56.0376C288.478 55.7098 287.889 54.535 287.086 54.1525C283.633 52.5405 283.445 55.6825 280.34 56.1197C279.617 56.229 278.653 55.5186 278.707 54.617C279.001 50.2999 280.366 49.6441 283.659 46.6932C280.206 43.4145 277.663 39.2888 275.762 34.8078C275.521 35.4363 275.119 36.3651 275.36 38.9608C275.066 39.2067 273.379 40.4909 273.272 40.7095C271.157 45.5183 270.033 42.7587 269.283 45.655C269.015 46.7479 268.534 48.6878 266.178 48.2507C263.982 47.8408 265.267 46.1194 263.153 44.6167C261.412 43.3871 261.439 42.9774 264.17 35.6822C265.696 31.6657 267.356 33.2777 268.426 28.4142C269.631 22.895 272.603 24.1518 270.675 21.7747C269.685 20.5452 268.239 19.5617 267.061 18.1136C265.856 16.6381 268.105 16.0096 267.275 14.0423C266.285 14.4522 266.874 14.2883 265.937 15.6271C264.652 17.5124 263.126 14.9713 262.51 14.3702C261.171 13.0587 259.886 13.25 256.46 15.6544C254.907 16.7474 257.156 21.5016 253.997 22.1847C251.373 22.7311 253.836 25.0808 255.335 27.1846C256.165 28.3322 256.005 29.6437 257.183 30.8186C258.28 31.9389 257.852 32.5673 256.54 33.5509C255.282 34.4799 253.729 32.7858 253.086 32.3214C252.069 31.5836 249.553 32.3761 250.356 34.4526C252.123 38.9063 250.597 39.3161 250.543 43.3326C250.543 43.6331 251.293 44.4528 251.828 44.2069C254.157 43.0867 254.693 42.4581 255.764 43.4145C256.674 44.2068 255.764 45.0539 254.612 45.9009C252.899 47.1578 251.668 44.2888 250.142 45.491C249.419 46.0648 248.964 46.9939 247.679 46.9392C243.85 46.7206 238.951 43.6058 238.657 42.6495C236.274 34.8898 238.603 36.174 240.906 33.6603C241.762 32.7313 243.529 34.8625 244.573 33.6603C245.483 32.5674 247.063 31.8023 247.036 30.1902C247.036 29.2339 248 28.7694 248.857 28.2503C254.238 24.9169 245.323 20.5998 245.001 22.2665C244.279 26.0371 241.869 29.6438 239.861 26.5836C238.55 24.589 241.12 23.3048 237.024 22.7583C236.542 22.7037 236.301 23.141 236.488 23.3869C238.496 25.9006 238.898 24.6163 233.463 27.0754C231.696 27.8678 230.465 31.775 233.65 34.7805C234.507 35.5728 232.258 36.0919 231.482 36.0646C226.69 35.9826 222.728 32.8679 222.969 31.7477C223.183 30.7641 224.896 31.3652 225.753 31.0646C227.707 30.3542 226.663 26.4196 224.843 26.8568C222.514 27.4305 223.772 27.2394 222.353 30.0263C222.059 30.6001 219.328 29.7804 217.266 25.9552C216.303 24.1792 212.073 21.7475 208.887 24.5891C204.952 28.0864 205.38 24.7256 203.452 21.2283C202.462 19.4249 199.276 20.6271 199.142 17.9768C199.062 16.556 197.563 16.1736 196.626 15.3813C196.305 15.108 195.903 15.2446 195.742 15.6271C195.528 16.2009 196.76 17.4851 194.618 18.2228C189.772 19.9441 192.209 21.9661 193.092 25.4087C193.708 27.8405 193.708 30.2723 190.709 29.3706C189.103 28.9061 188.086 29.3979 186.854 29.6985C184.391 30.2996 188.327 32.9499 184.498 33.6056C183.642 33.7422 182.705 33.9882 181.848 33.7969C174.031 32.1302 172.291 29.2886 170.015 26.611C167.07 23.1409 169.962 22.0207 168.837 19.8076C168.034 18.2228 165.116 20.3812 164.206 18.6599C157.995 7.26623 146.376 0.435562 144.984 0.79076C142.119 1.50116 139.496 -0.95792 138.559 0.435549C137.086 2.62138 144.743 4.7253 144.984 6.63791C145.144 7.94941 144.422 10.0532 147.259 10.8729C152.855 12.485 150.579 11.8566 156.977 15.6544C156.817 16.3375 156.683 17.0751 155.585 17.1025C153.47 17.1298 152.801 16.0916 151.944 15.6271C149.214 14.097 148.946 13.3593 139.683 11.0369C138.853 10.8183 137.863 10.9822 137.086 11.1734C136.176 11.4193 136.256 12.1571 136.256 12.8948C136.256 14.8894 132.83 13.9877 131.223 12.157C130.608 11.4739 129.697 11.2828 128.76 11.2555C128.841 11.2008 128.814 11.2007 128.868 11.1461C128.546 11.2281 128.466 10.9823 128.573 10.9276C128.171 10.9276 127.93 11.0368 128.252 11.31C127.904 11.4193 127.663 11.6107 127.823 12.1025C128.76 14.8075 130.795 15.1353 137.997 19.3977C139.121 20.0534 139.549 21.5562 140.486 23.9879C142.093 28.1137 139.255 28.0044 138.478 26.9115C134.57 21.3376 134.49 19.3704 130.849 19.2884C130.072 19.2884 128.064 17.6217 126.833 16.9114C124.986 15.8184 124.584 18.2228 121.827 17.1572C118.962 16.0642 119.364 17.9222 120.247 18.8512C122.657 21.3922 120.997 23.1137 124.129 22.8951C124.798 22.8404 125.682 22.5398 126.056 22.7857C127.208 23.4688 128.493 24.2885 129.108 25.2175C129.644 26.0645 131.384 30.2449 130.286 30.3542C127.074 30.6547 128.707 32.4307 128.386 35.081C128.305 35.6275 126.967 36.1193 125.468 35.4089C121.345 33.4143 120.381 36.5019 118.56 34.1248C117.731 33.0592 117.168 30.6274 113.902 29.1246C113.313 28.8514 112.939 28.2503 112.457 27.8132C111.627 27.0208 112.055 26.5562 112.644 26.0098C114.304 24.3977 111.707 24.0973 109.78 22.212C104.051 16.5835 100.276 19.8076 99.1781 14.5069C98.9907 13.6599 99.0709 13.6872 94.2521 10.3811C93.8773 10.1079 91.4679 10.3811 90.7718 11.3647C89.9955 12.5123 89.4601 15.4358 91.1467 16.3102C92.0569 16.7747 97.5183 17.0206 101.427 20.0807C103.756 27.3486 106.835 26.0371 104.693 28.5508C103.301 30.1901 100.276 27.7584 99.5261 28.2503C99.9277 28.4142 100.57 28.5508 100.677 28.7694C102.658 33.3597 107.102 35.081 107.343 38.0046C112.242 40.8461 106.433 43.3326 105.951 40.6276C105.817 39.9172 105.871 39.2068 105.844 38.4964C104.024 38.1958 103.81 38.2231 103.676 38.8516C102.444 43.879 102.337 46.8845 99.3923 45.8189C95.9656 44.562 92.1907 45.0812 89.5939 44.5348C89.7278 44.6714 89.1656 45.1359 89.4601 45.3818C93.9309 49.4256 100.088 53.6607 86.2207 49.371C81.4554 47.8956 85.6049 44.9992 80.3578 39.5346C78.1893 37.2668 76.7437 36.7751 77.7074 34.8078C78.7783 32.704 76.476 31.1192 72.0587 27.294C69.8367 25.3541 68.6856 27.212 63.8935 23.7693C57.2006 18.9604 60.6006 20.108 57.2274 17.6763C55.7015 16.5561 53.64 16.2008 53.4258 14.3702C52.8904 10.0532 53.3455 9.15159 52.0872 8.65977C46.7865 6.58323 45.7425 9.12426 44.1094 6.09141C43.4401 4.83456 42.1284 6.2007 41.2985 6.93842C40.6827 7.48488 40.2008 7.81278 44.7787 9.53413C47.4826 10.5451 48.3126 13.5232 48.0181 14.2062C47.4291 15.627 49.9724 16.9932 48.848 18.3594C49.6779 19.0425 50.5614 19.7256 51.3377 20.4359C52.944 21.8841 54.2825 25.4087 51.5786 27.212C51.2573 27.4306 50.9093 27.6219 50.6148 27.8405C50.24 28.1411 50.5346 28.9607 51.0433 29.2885C54.0417 31.0645 55.6478 29.8077 59.1281 28.6602C60.895 28.0591 64.6431 30.3814 62.7423 32.5126C60.3061 35.2996 68.4445 37.3489 66.8115 38.7423C65.8209 39.6167 64.9376 40.573 63.7865 41.2833C62.0731 42.3216 58.6195 42.267 57.3077 39.9172C56.6919 38.8243 55.8353 37.9772 54.1755 37.7859C51.7928 37.54 53.0244 35.3816 48.3661 38.1685C45.8764 39.6713 48.5802 41.42 48.0715 44.2069C47.7235 46.2015 51.1771 46.2015 54.3093 46.4201C57.3612 46.6387 55.6479 43.5784 59.744 44.6167C67.4541 46.5839 66.1155 45.1906 69.1942 46.9392C70.4792 47.6769 71.202 47.2943 72.1925 46.8298C73.5579 46.2014 75.2713 46.9392 76.8241 47.0484C79.876 47.2944 80.1704 51.7754 77.52 51.2289C66.7044 48.9885 71.791 48.0048 64.2147 55.2453C63.1439 56.2836 61.8321 57.1034 62.0195 58.7427C62.073 59.3165 59.8509 60.8193 57.1203 60.6554C49.4101 60.1909 49.4638 60.6007 47.215 58.7154C45.9032 57.5951 45.2607 59.1798 43.708 58.852C40.656 58.1962 39.7457 55.2179 37.711 61.147C29.9741 62.7864 31.5804 64.535 32.678 63.8793C38.9157 60.2727 35.8639 67.6772 39.6655 71.4204C40.8702 72.5953 39.2638 73.6609 38.2197 75.109C37.4166 76.2019 36.667 75.683 29.3852 72.6502C26.6278 71.5026 30.6167 68.3878 27.5648 68.1692C26.3868 68.0872 25.316 67.9232 24.4594 67.0215C21.4342 63.7427 18.409 60.0543 17.2311 62.0215C15.946 64.1527 14.2595 66.0927 13.724 68.5244C13.4563 69.7539 12.8673 70.8466 11.85 71.721C9.30673 73.9068 11.1807 76.202 7.45947 74.508C5.47839 73.6063 6.0139 76.12 3.52416 76.9397C2.42654 77.2949 1.89107 83.3061 3.14932 83.1694C4.64852 82.9782 6.33516 78.8522 8.04852 79.8905C10.9131 81.6665 7.995 83.1694 18.2752 83.7978C21.4878 83.9891 18.7303 81.776 21.2468 80.164C22.7727 79.2077 25.5301 81.3113 24.0309 82.3223C21.3003 84.1529 21.1932 83.3608 21.675 85.3007C22.2372 87.4592 21.7553 87.4591 19.3192 88.2515C17.1239 88.9892 19.5602 90.5467 21.9429 93.1424C22.6657 93.9347 21.9963 94.6995 21.22 94.5629C18.9444 94.2077 16.6689 93.4429 14.5807 94.4538C14.2059 94.6451 13.2421 94.2898 12.6263 94.0166C10.1366 92.8963 10.0028 91.858 8.34297 92.2679C4.80915 93.1695 4.11313 88.4701 1.51631 89.645C0.632858 90.0275 1.2486 91.0382 0.847029 91.5027C-1.69625 94.317 2.85483 96.6668 6.1477 99.0712C13.8846 104.754 9.65476 102.623 15.1964 106.667C18.5696 109.126 15.5712 111.093 15.9995 114.837C16.0263 115.055 15.357 115.465 15.116 115.383C13.3491 114.809 12.5727 115.41 12.0909 116.503C10.9397 119.072 9.86894 119.536 11.0201 120.821C13.8043 123.935 10.4312 123.908 14.3933 129.782C15.3571 131.203 13.5902 132.487 12.198 132.05C10.1902 131.422 6.97755 130.056 6.92401 130.384C6.79015 131.476 8.63736 133.088 9.41372 133.389C11.0468 134.017 11.9302 135.192 13.2688 135.985C14.7948 141.039 15.1428 138.744 15.4373 141.504C15.8388 145.192 10.1634 139.564 9.3067 141.094C8.71773 142.132 9.11939 143.471 8.39656 144.482C8.31625 144.591 8.82487 145.138 9.19967 145.356C11.6091 146.859 15.5177 145.63 14.5807 147.761C14.0453 148.99 10.7791 152.788 13.6704 154.373C15.8925 155.575 18.2216 158.034 18.8641 162.133C19.346 165.138 24.4593 162.652 24.5396 165.275C24.6199 169.154 24.1112 171.45 26.6813 171.368C32.1426 171.177 30.4026 167.925 30.1349 164.455C29.9207 161.532 37.8449 163.854 40.0669 166.778C41.7535 168.963 40.5488 170.193 43.2527 171.668C54.6305 177.871 46.2779 187.625 48.4196 192.871C49.1959 194.784 47.7504 196.259 47.6969 198.035C47.6165 201.122 46.7063 202.625 44.2968 205.549C42.8512 207.27 46.5457 206.614 46.3315 210.33C46.2512 211.614 46.0905 213.363 45.2606 214.92C45.1535 214.237 44.4306 214.429 45.2338 214.92C43.7881 216.751 43.5206 218.882 43.708 221.15C42.2623 225.631 44.3771 225.686 44.2701 224.429C44.163 223.172 45.2606 220.85 46.8402 220.795C50.722 220.658 50.5346 222.325 52.355 221.369C53.6133 220.713 54.4968 219.839 54.8984 218.636C54.9519 218.445 55.7551 218.964 55.9157 218.882C56.0228 218.828 55.9692 218.664 55.9157 218.882C55.6212 220.303 56.4243 222.762 54.7377 224.538C54.2291 225.085 54.3093 225.249 52.9707 232.079C52.7833 233.09 51.7928 233.309 50.6684 233.418C51.4716 236.232 45.6622 248.391 48.955 247.872C51.0967 247.544 51.4715 248.91 52.5959 250.085C56.5313 247.462 53.7203 242.052 59.3155 246.232C58.084 248.937 56.451 247.216 56.3172 251.369C56.3172 251.56 56.8526 251.834 57.2006 252.025C57.8164 252.353 58.0574 251.287 59.2353 249.184C60.7613 246.451 65.125 251.233 67.5879 251.26C71.3092 251.315 70.3722 252.872 69.7564 256.069C69.3816 257.982 71.4697 257.544 72.1925 257.107C76.2082 254.676 76.9579 256.697 78.6713 249.73C78.9926 248.364 80.7862 247.626 80.6792 246.069C80.5453 244.183 85.5515 245.413 83.6775 248.036C83.2492 248.61 82.7405 249.129 83.0885 249.867C83.6775 251.069 82.6066 251.752 82.2586 252.681C81.5625 253.145 81.0271 252.626 81.4287 256.479C81.4822 257.025 83.0082 257.544 83.5971 256.998C85.0963 255.604 83.8917 254.539 86.7027 250.878C90.1027 246.424 89.2191 244.921 90.7718 242.954C91.3073 242.298 92.8869 242.407 93.7168 243.145C93.8774 243.282 93.8774 243.5 94.038 243.664C95.0553 244.621 95.2694 244.593 96.4474 243.446C99.6599 243.828 101.721 242.762 101.614 246.888C101.614 247.763 104.372 247.435 103.622 245.386C105.121 244.183 105.095 242.407 105.71 240.877C110.422 240.741 107.317 243.2 107.102 247.954C109.512 247.981 108.735 244.183 112.269 242.844C114.491 241.997 115.375 246.642 116.151 244.976C118.159 240.631 118.239 243.036 119.658 239.347C122.255 240.413 121.907 240.823 120.97 245.386C122.978 244.265 122.63 242.981 123.781 241.642C124.183 241.178 125.28 241.151 126.056 240.932C127.368 246.916 126.94 243.5 127.609 247.025C125.2 252.872 127.984 256.342 125.494 259.757C124.45 261.206 123.861 268.856 122.389 271.042C122.148 271.397 122.55 272.08 122.657 272.599C123.058 274.293 123.513 272.654 125.869 275.249C124.611 276.807 126.217 280.632 123.299 281.616C122.201 281.971 122.871 283.747 123.674 283.419C124.236 283.2 125.119 283.037 125.227 282.681C125.655 281.397 129.697 278.283 129.697 278.283C129.162 275.823 130.849 274.348 132.669 272.954C134.516 271.534 133.553 278.064 132.348 278.692C126.646 281.588 137.167 290.004 136.685 279.73C136.979 279.321 137.622 278.884 137.515 278.528C137.113 277.299 138.211 276.78 138.826 276.042C143.003 274.676 141.53 274.703 145.68 276.37C146.135 276.561 147.233 276.042 147.072 275.714C144.877 271.151 145.653 272.107 143.27 271.616C140.888 271.124 141.932 269.348 148.759 256.26C150.927 252.107 151.65 250.905 154.274 251.724C155.692 252.162 155.344 251.315 156.656 249.785C157.272 249.074 158.236 248.364 159.28 248.937C161.716 250.304 154.782 257.353 157.727 258.5C159.387 259.156 159.066 258.938 162.118 257.08C165.143 255.249 161.448 254.211 162.358 252.353C163.884 249.265 165.116 249.047 166.776 249.73C169.48 250.85 169.48 248.637 170.524 247.899C171.648 247.107 170.818 246.396 170.149 245.577C169.48 244.757 169.747 244.074 170.845 243.992C173.576 243.801 172.933 242.599 174.191 241.397C175.021 240.604 176.788 241.806 176.601 242.489C176.253 243.719 174.459 246.697 173.254 247.271C171.514 248.063 173.469 250.003 171.113 251.287C170.256 251.752 170.604 252.708 171.996 254.785C173.281 256.697 174.539 255.96 178.073 256.287C177.832 257.326 177.618 257.735 177.029 262.271C176.869 263.473 180.081 260.796 180.402 259.976C181.741 256.67 181.42 257.244 182.731 256.451C187.229 256.998 185.971 257.517 191.084 253.337C193.253 254.539 195.849 255.277 197.536 257.08C198.125 257.708 201.043 258.5 201.632 257.162C202.382 255.386 203.453 252.462 205.675 253.5C207.415 254.32 208.137 251.642 205.728 249.293C205.621 249.702 205.541 249.375 205.728 249.293C205.862 249.238 206.076 249.293 206.504 249.812C208.378 250.249 209.155 248.746 211.296 249.265C215.607 250.331 211.189 251.26 214.536 253.965C214.777 254.156 213.867 254.074 213.84 254.375C213.626 257.435 207.441 260.987 211.671 263.009C213.117 263.692 214.027 261.151 215.553 262.599C220.211 266.971 214.857 266.834 218.766 268.747C220.158 269.43 220.131 270.167 218.766 270.605C215.366 271.643 217.989 271.752 215.205 273.146C212.555 274.457 212.983 274.293 216.651 278.938C216.972 281.397 218.203 281.78 215.66 288.091C215.178 289.294 215.044 290.987 216.463 291.971C216.945 292.299 218.685 289.758 219.381 288.856C220.934 286.78 215.981 286.151 217.507 283.774C221.122 278.118 219.596 279.84 222.112 279.02C222.487 278.911 222.407 278.583 222.005 278.255C222.46 277.135 222.112 275.796 223.129 274.84C224.762 273.282 224.736 273.993 227.092 273.637C228.671 273.392 229.688 274.157 230.625 275.113C230.572 275.851 230.706 276.479 231.884 276.862C235.043 277.873 233.891 277.572 233.57 281.671C233.517 282.381 232.419 281.588 233.195 282.053C233.329 282.135 233.731 282.135 233.784 282.053C235.15 280.359 237.024 279.075 238.791 277.681C239.701 276.971 240.718 277.135 241.816 277.791C244.573 279.485 246.474 275.25 247.866 274.485C250.329 273.146 252.471 271.615 252.23 268.747C252.176 268.118 252.979 267.572 253.354 266.998C254.479 265.167 247.652 263.746 258.2 263.282C261.011 263.173 259.11 267.927 258.2 269.184C257.209 270.523 256.995 272.08 256.299 273.501C255.63 274.867 261.707 274.703 261.975 273.719C263.688 267.599 262.938 268.938 261.439 267.299C260.261 266.014 260.556 264.593 262.349 264.375C267.65 263.774 265.91 261.069 269.765 260.905C271.505 260.823 278.037 255.85 278.974 255.058C284.302 250.468 288.907 255.522 292.949 245.276C296.054 245.467 298.276 243.937 301.087 243.5C301.382 243.473 301.65 242.954 301.596 242.653C301.248 240.686 300.739 238.719 303.818 238.036C305.317 237.708 304.942 235.085 306.094 233.992C310.083 230.194 307.165 228.582 308.289 225.713C309.601 222.38 306.95 221.615 308.958 220.768C312.546 219.238 309.199 213.063 314.232 213.035C313.322 210.686 315.705 210.194 316.963 211.45C317.632 212.133 319.051 212.188 319.265 211.669C320.283 209.128 321.996 206.696 320.229 203.581C320.068 203.281 320.738 202.434 321.086 202.352C321.38 202.27 322.076 202.407 322.264 202.598C325.744 206.587 324.834 206.587 325.878 204.92C327.243 202.734 327.805 202.871 326.44 201.314C320.202 194.128 325.423 192.024 322.531 188.827C324.057 186.177 324.86 186.914 327.029 188.936C327.136 189.237 327.109 189.647 327.323 189.756C329.438 190.767 329.117 190.029 331.205 189.729C332.41 190.303 335.622 191.396 334.016 192.816C333.026 193.718 332.678 193.417 331.928 193.335C334.766 194.811 335.007 196.232 337.363 197.188C339.933 198.226 340.709 202.133 339.156 205.112C337.978 207.352 343.761 206.915 342.476 210.439C342.369 210.74 342.235 211.041 341.967 211.259C345.341 212.489 344.029 212.024 345.314 214.319C346.465 216.341 348.392 213.773 351.632 212.298C352.81 211.751 353.158 210.494 354.255 210.276C355.407 210.057 356.959 210.685 358.325 210.849C359.743 211.013 361.457 209.838 363.251 212.051C363.652 212.543 364.054 213.008 364.509 213.472C365.901 214.92 368.31 211.259 366.195 207.106C365.847 206.396 364.589 202.079 365.419 201.86C367.748 201.204 366.624 199.538 366.65 198.199C366.677 196.204 368.096 194.701 369.033 193.035C370.372 190.63 375.806 191.368 375.03 189.128L374.816 189.073Z" fill="#03FC10" fill-opacity="0.1"/>
</svg>
